<?xml version="1.0" encoding="UTF-8"?>
<svg id="_레이어_1" data-name="레이어_1" xmlns="http://www.w3.org/2000/svg" version="1.1" viewBox="0 0 2880 1800">
  <!-- Generator: Adobe Illustrator 30.0.0, SVG Export Plug-In . SVG Version: 2.1.1 Build 123)  -->
  <path d="M343.3,868.69h31.04c30.4,0,45.76-6.08,45.76-20.48s-15.36-20.16-45.76-20.16h-27.84l9.6-80h39.36c97.28,0,127.04,41.92,127.04,101.76s-29.76,102.08-127.04,102.08h-52.16v64.96h-108.8v-268.81h108.8v120.64Z"/>
  <path d="M528.9,888.53h112.32c2.24,20.8,19.2,38.72,47.68,38.72,30.4,0,48-21.12,48-45.12s-17.28-44.48-48-44.48c-28.8,0-47.36,18.24-47.68,47.68l-112.32-9.6c3.52-80.96,65.28-134.08,160-134.08s160,56,160,140.8-62.72,140.8-160,140.8-156.8-53.44-160-134.72Z"/>
  <path d="M967.3,855.89h24.64c25.6,0,40.96-5.12,40.96-15.68s-15.36-15.36-40.96-15.36h-18.24l9.6-76.8h23.36c100.48,0,136.64,33.92,136.64,92.16,0,35.84-13.44,62.4-47.36,77.76l60.16,98.88h-131.2l-35.2-84.16h-22.4v84.16h-108.8v-268.81h108.8v107.84Z"/>
  <path d="M1237.7,1016.85v-172.8h-76.8v-96h262.41v96h-76.8v172.8h-108.8Z"/>
  <path d="M1541.7,839.25v28.8h129.6v81.6h-129.6v67.2h-107.2v-268.81h241.61v91.2h-134.4Z"/>
  <path d="M1685.69,888.53h112.32c2.24,20.8,19.2,38.72,47.68,38.72,30.4,0,48-21.12,48-45.12s-17.28-44.48-48-44.48c-28.8,0-47.36,18.24-47.68,47.68l-112.32-9.6c3.52-80.96,65.28-134.08,160-134.08s160,56,160,140.8-62.72,140.8-160,140.8-156.8-53.44-160-134.72Z"/>
  <path d="M2245.69,1016.85h-230.41v-268.81h108.8v176h121.6v92.8Z"/>
  <path d="M2367.29,1016.85h-108.8v-268.81h108.8v268.81Z"/>
  <path d="M2376.88,888.53h112.32c2.24,20.8,19.2,38.72,47.68,38.72,30.4,0,48-21.12,48-45.12s-17.28-44.48-48-44.48c-28.8,0-47.36,18.24-47.68,47.68l-112.32-9.6c3.52-80.96,65.28-134.08,160-134.08s160,56,160,140.8-62.72,140.8-160,140.8-156.8-53.44-160-134.72Z"/>
</svg>